<mxfile host="app.diagrams.net" agent="Mozilla/5.0 (X11; Linux x86_64) AppleWebKit/537.36 (KHTML, like Gecko) Chrome/138.0.0.0 Safari/537.36" version="28.0.7">
  <diagram name="Seite-1" id="EfJbyPkJt1Nwu6sco8uU">
    <mxGraphModel dx="1213" dy="812" grid="1" gridSize="10" guides="1" tooltips="1" connect="1" arrows="1" fold="1" page="1" pageScale="1" pageWidth="827" pageHeight="1169" math="0" shadow="0">
      <root>
        <mxCell id="0" />
        <mxCell id="1" parent="0" />
        <mxCell id="LzvdwM_UPnoj0yFsxbK3-9" style="edgeStyle=orthogonalEdgeStyle;rounded=0;orthogonalLoop=1;jettySize=auto;html=1;" parent="1" source="LzvdwM_UPnoj0yFsxbK3-1" target="LzvdwM_UPnoj0yFsxbK3-5" edge="1">
          <mxGeometry relative="1" as="geometry">
            <Array as="points">
              <mxPoint x="376" y="300" />
              <mxPoint x="216" y="300" />
            </Array>
          </mxGeometry>
        </mxCell>
        <mxCell id="LzvdwM_UPnoj0yFsxbK3-10" style="edgeStyle=orthogonalEdgeStyle;rounded=0;orthogonalLoop=1;jettySize=auto;html=1;" parent="1" source="LzvdwM_UPnoj0yFsxbK3-1" target="LzvdwM_UPnoj0yFsxbK3-6" edge="1">
          <mxGeometry relative="1" as="geometry">
            <Array as="points">
              <mxPoint x="426" y="300" />
              <mxPoint x="606" y="300" />
            </Array>
          </mxGeometry>
        </mxCell>
        <mxCell id="LzvdwM_UPnoj0yFsxbK3-2" value="Trade DB" style="rounded=1;whiteSpace=wrap;html=1;" parent="1" vertex="1">
          <mxGeometry x="156" y="90" width="120" height="60" as="geometry" />
        </mxCell>
        <mxCell id="LzvdwM_UPnoj0yFsxbK3-3" value="User DB" style="rounded=1;whiteSpace=wrap;html=1;" parent="1" vertex="1">
          <mxGeometry x="546" y="90" width="120" height="60" as="geometry" />
        </mxCell>
        <mxCell id="LzvdwM_UPnoj0yFsxbK3-11" style="edgeStyle=orthogonalEdgeStyle;rounded=0;orthogonalLoop=1;jettySize=auto;html=1;" parent="1" target="LzvdwM_UPnoj0yFsxbK3-1" edge="1">
          <mxGeometry relative="1" as="geometry">
            <mxPoint x="406" y="520" as="sourcePoint" />
          </mxGeometry>
        </mxCell>
        <mxCell id="LzvdwM_UPnoj0yFsxbK3-8" style="edgeStyle=orthogonalEdgeStyle;rounded=0;orthogonalLoop=1;jettySize=auto;html=1;" parent="1" source="LzvdwM_UPnoj0yFsxbK3-5" target="LzvdwM_UPnoj0yFsxbK3-2" edge="1">
          <mxGeometry relative="1" as="geometry" />
        </mxCell>
        <mxCell id="LzvdwM_UPnoj0yFsxbK3-7" style="edgeStyle=orthogonalEdgeStyle;rounded=0;orthogonalLoop=1;jettySize=auto;html=1;" parent="1" source="LzvdwM_UPnoj0yFsxbK3-6" target="LzvdwM_UPnoj0yFsxbK3-3" edge="1">
          <mxGeometry relative="1" as="geometry" />
        </mxCell>
        <mxCell id="LzvdwM_UPnoj0yFsxbK3-12" value="" style="shape=flexArrow;endArrow=classic;startArrow=classic;html=1;rounded=0;" parent="1" edge="1">
          <mxGeometry width="100" height="100" relative="1" as="geometry">
            <mxPoint x="201" y="439.44" as="sourcePoint" />
            <mxPoint x="611" y="439.44" as="targetPoint" />
          </mxGeometry>
        </mxCell>
        <mxCell id="LzvdwM_UPnoj0yFsxbK3-14" value="Container scaled" style="text;strokeColor=none;align=center;fillColor=none;html=1;verticalAlign=middle;whiteSpace=wrap;rounded=0;" parent="1" vertex="1">
          <mxGeometry x="256" y="400" width="60" height="30" as="geometry" />
        </mxCell>
        <mxCell id="LzvdwM_UPnoj0yFsxbK3-15" value="Container scaled" style="text;strokeColor=none;align=center;fillColor=none;html=1;verticalAlign=middle;whiteSpace=wrap;rounded=0;" parent="1" vertex="1">
          <mxGeometry x="256" y="510" width="60" height="30" as="geometry" />
        </mxCell>
        <mxCell id="LzvdwM_UPnoj0yFsxbK3-16" value="" style="shape=flexArrow;endArrow=classic;startArrow=classic;html=1;rounded=0;" parent="1" edge="1">
          <mxGeometry width="100" height="100" relative="1" as="geometry">
            <mxPoint x="466" y="230" as="sourcePoint" />
            <mxPoint x="756" y="229.44" as="targetPoint" />
          </mxGeometry>
        </mxCell>
        <mxCell id="LzvdwM_UPnoj0yFsxbK3-6" value="DB Handler" style="rounded=1;whiteSpace=wrap;html=1;" parent="1" vertex="1">
          <mxGeometry x="546" y="200" width="120" height="60" as="geometry" />
        </mxCell>
        <mxCell id="LzvdwM_UPnoj0yFsxbK3-17" value="" style="shape=flexArrow;endArrow=classic;startArrow=classic;html=1;rounded=0;" parent="1" edge="1">
          <mxGeometry width="100" height="100" relative="1" as="geometry">
            <mxPoint x="71" y="230" as="sourcePoint" />
            <mxPoint x="361" y="229.44" as="targetPoint" />
          </mxGeometry>
        </mxCell>
        <mxCell id="LzvdwM_UPnoj0yFsxbK3-5" value="DB Handler" style="rounded=1;whiteSpace=wrap;html=1;" parent="1" vertex="1">
          <mxGeometry x="156" y="200" width="120" height="60" as="geometry" />
        </mxCell>
        <mxCell id="LzvdwM_UPnoj0yFsxbK3-1" value="Main Backend" style="rounded=1;whiteSpace=wrap;html=1;" parent="1" vertex="1">
          <mxGeometry x="346" y="410" width="120" height="60" as="geometry" />
        </mxCell>
        <mxCell id="LzvdwM_UPnoj0yFsxbK3-18" value="Container scaled" style="text;strokeColor=none;align=center;fillColor=none;html=1;verticalAlign=middle;whiteSpace=wrap;rounded=0;" parent="1" vertex="1">
          <mxGeometry x="676" y="190" width="60" height="30" as="geometry" />
        </mxCell>
        <mxCell id="LzvdwM_UPnoj0yFsxbK3-19" value="Container scaled" style="text;strokeColor=none;align=center;fillColor=none;html=1;verticalAlign=middle;whiteSpace=wrap;rounded=0;" parent="1" vertex="1">
          <mxGeometry x="96" y="190" width="60" height="30" as="geometry" />
        </mxCell>
        <mxCell id="KaCHlHuYccl-DNyoMXv1-18" style="edgeStyle=orthogonalEdgeStyle;rounded=0;orthogonalLoop=1;jettySize=auto;html=1;fillColor=#1ba1e2;strokeColor=#006EAF;strokeWidth=3;" parent="1" source="KaCHlHuYccl-DNyoMXv1-1" target="KaCHlHuYccl-DNyoMXv1-3" edge="1">
          <mxGeometry relative="1" as="geometry">
            <Array as="points">
              <mxPoint x="200" y="860" />
              <mxPoint x="200" y="860" />
            </Array>
          </mxGeometry>
        </mxCell>
        <mxCell id="KaCHlHuYccl-DNyoMXv1-1" value="User DB" style="rounded=1;whiteSpace=wrap;html=1;" parent="1" vertex="1">
          <mxGeometry x="80" y="730" width="280" height="60" as="geometry" />
        </mxCell>
        <mxCell id="KaCHlHuYccl-DNyoMXv1-12" style="edgeStyle=orthogonalEdgeStyle;rounded=0;orthogonalLoop=1;jettySize=auto;html=1;fillColor=#1ba1e2;strokeColor=#006EAF;strokeWidth=3;" parent="1" source="KaCHlHuYccl-DNyoMXv1-2" target="KaCHlHuYccl-DNyoMXv1-4" edge="1">
          <mxGeometry relative="1" as="geometry">
            <Array as="points">
              <mxPoint x="160" y="1140" />
              <mxPoint x="160" y="1140" />
            </Array>
          </mxGeometry>
        </mxCell>
        <mxCell id="KaCHlHuYccl-DNyoMXv1-2" value="Frontend" style="rounded=1;whiteSpace=wrap;html=1;" parent="1" vertex="1">
          <mxGeometry x="80" y="1189" width="640" height="60" as="geometry" />
        </mxCell>
        <mxCell id="KaCHlHuYccl-DNyoMXv1-16" style="edgeStyle=orthogonalEdgeStyle;rounded=0;orthogonalLoop=1;jettySize=auto;html=1;fillColor=#1ba1e2;strokeColor=#006EAF;strokeWidth=3;" parent="1" source="KaCHlHuYccl-DNyoMXv1-3" target="KaCHlHuYccl-DNyoMXv1-1" edge="1">
          <mxGeometry relative="1" as="geometry">
            <Array as="points">
              <mxPoint x="160" y="810" />
              <mxPoint x="160" y="810" />
            </Array>
          </mxGeometry>
        </mxCell>
        <mxCell id="5tioHi316_J45j02cDT2-4" style="edgeStyle=orthogonalEdgeStyle;rounded=0;orthogonalLoop=1;jettySize=auto;html=1;fillColor=#1ba1e2;strokeColor=#006EAF;strokeWidth=3;" edge="1" parent="1" source="KaCHlHuYccl-DNyoMXv1-3" target="KaCHlHuYccl-DNyoMXv1-4">
          <mxGeometry relative="1" as="geometry">
            <Array as="points">
              <mxPoint x="200" y="960" />
              <mxPoint x="200" y="960" />
            </Array>
          </mxGeometry>
        </mxCell>
        <mxCell id="5tioHi316_J45j02cDT2-10" style="edgeStyle=orthogonalEdgeStyle;rounded=0;orthogonalLoop=1;jettySize=auto;html=1;strokeWidth=4;fillColor=#e3c800;strokeColor=light-dark(#B09500,#8D881B);" edge="1" parent="1" source="KaCHlHuYccl-DNyoMXv1-3" target="KaCHlHuYccl-DNyoMXv1-1">
          <mxGeometry relative="1" as="geometry">
            <Array as="points">
              <mxPoint x="320" y="850" />
              <mxPoint x="320" y="850" />
            </Array>
          </mxGeometry>
        </mxCell>
        <mxCell id="KaCHlHuYccl-DNyoMXv1-3" value="DB Handler" style="rounded=1;whiteSpace=wrap;html=1;" parent="1" vertex="1">
          <mxGeometry x="80" y="880" width="640" height="60" as="geometry" />
        </mxCell>
        <mxCell id="KaCHlHuYccl-DNyoMXv1-14" style="edgeStyle=orthogonalEdgeStyle;rounded=0;orthogonalLoop=1;jettySize=auto;html=1;fillColor=#1ba1e2;strokeColor=#006EAF;strokeWidth=3;" parent="1" source="KaCHlHuYccl-DNyoMXv1-4" target="KaCHlHuYccl-DNyoMXv1-3" edge="1">
          <mxGeometry relative="1" as="geometry">
            <Array as="points">
              <mxPoint x="160" y="990" />
              <mxPoint x="160" y="990" />
            </Array>
          </mxGeometry>
        </mxCell>
        <mxCell id="5tioHi316_J45j02cDT2-6" style="edgeStyle=orthogonalEdgeStyle;rounded=0;orthogonalLoop=1;jettySize=auto;html=1;fillColor=#1ba1e2;strokeColor=#006EAF;strokeWidth=3;" edge="1" parent="1" source="KaCHlHuYccl-DNyoMXv1-4" target="KaCHlHuYccl-DNyoMXv1-2">
          <mxGeometry relative="1" as="geometry">
            <Array as="points">
              <mxPoint x="200" y="1130" />
              <mxPoint x="200" y="1130" />
            </Array>
          </mxGeometry>
        </mxCell>
        <mxCell id="5tioHi316_J45j02cDT2-8" style="edgeStyle=orthogonalEdgeStyle;rounded=0;orthogonalLoop=1;jettySize=auto;html=1;strokeWidth=4;fillColor=#e3c800;strokeColor=light-dark(#B09500,#8D881B);" edge="1" parent="1" source="KaCHlHuYccl-DNyoMXv1-4" target="KaCHlHuYccl-DNyoMXv1-3">
          <mxGeometry relative="1" as="geometry">
            <Array as="points">
              <mxPoint x="320" y="1000" />
              <mxPoint x="320" y="1000" />
            </Array>
          </mxGeometry>
        </mxCell>
        <mxCell id="KaCHlHuYccl-DNyoMXv1-4" value="Main Backend" style="rounded=1;whiteSpace=wrap;html=1;" parent="1" vertex="1">
          <mxGeometry x="80" y="1020" width="640" height="60" as="geometry" />
        </mxCell>
        <mxCell id="KaCHlHuYccl-DNyoMXv1-5" value="Trade DB" style="rounded=1;whiteSpace=wrap;html=1;" parent="1" vertex="1">
          <mxGeometry x="440" y="730" width="280" height="60" as="geometry" />
        </mxCell>
        <mxCell id="KaCHlHuYccl-DNyoMXv1-13" value="&lt;span style=&quot;font-size: 11px; background-color: light-dark(#ffffff, var(--ge-dark-color, #121212));&quot;&gt;POST Login&lt;/span&gt;&lt;div style=&quot;font-size: 11px;&quot;&gt;Username&lt;/div&gt;&lt;div style=&quot;font-size: 11px;&quot;&gt;Password&lt;/div&gt;" style="text;html=1;align=center;verticalAlign=middle;resizable=0;points=[];autosize=1;strokeColor=none;fillColor=none;fontColor=light-dark(#000000,#0092FF);" parent="1" vertex="1">
          <mxGeometry x="70" y="1100" width="80" height="50" as="geometry" />
        </mxCell>
        <mxCell id="KaCHlHuYccl-DNyoMXv1-15" value="GET Login&lt;div&gt;Username &amp;amp; Password&lt;/div&gt;" style="text;strokeColor=none;align=center;fillColor=none;html=1;verticalAlign=middle;whiteSpace=wrap;rounded=0;fontColor=light-dark(#000000,#0092FF);" parent="1" vertex="1">
          <mxGeometry x="36" y="970" width="120" height="30" as="geometry" />
        </mxCell>
        <mxCell id="KaCHlHuYccl-DNyoMXv1-17" value="Check Username&lt;div&gt;Password&lt;/div&gt;" style="text;strokeColor=none;align=center;fillColor=none;html=1;verticalAlign=middle;whiteSpace=wrap;rounded=0;fontColor=light-dark(#000000,#0092FF);" parent="1" vertex="1">
          <mxGeometry x="90" y="810" width="60" height="30" as="geometry" />
        </mxCell>
        <mxCell id="KaCHlHuYccl-DNyoMXv1-19" value="Return&amp;nbsp;&lt;div&gt;Username&lt;div&gt;True/False Password&lt;/div&gt;&lt;/div&gt;" style="text;strokeColor=none;align=center;fillColor=none;html=1;verticalAlign=middle;whiteSpace=wrap;rounded=0;fontColor=light-dark(#000000,#0092FF);" parent="1" vertex="1">
          <mxGeometry x="200" y="970" width="110" height="30" as="geometry" />
        </mxCell>
        <mxCell id="5tioHi316_J45j02cDT2-1" value="Anfragen Diagramm" style="text;strokeColor=none;align=center;fillColor=none;html=1;verticalAlign=middle;whiteSpace=wrap;rounded=0;fontSize=20;fontStyle=1" vertex="1" parent="1">
          <mxGeometry x="305" y="650" width="190" height="50" as="geometry" />
        </mxCell>
        <mxCell id="5tioHi316_J45j02cDT2-2" value="App Struktur" style="text;strokeColor=none;align=center;fillColor=none;html=1;verticalAlign=middle;whiteSpace=wrap;rounded=0;fontSize=20;fontStyle=1" vertex="1" parent="1">
          <mxGeometry x="311" y="30" width="190" height="50" as="geometry" />
        </mxCell>
        <mxCell id="5tioHi316_J45j02cDT2-3" value="" style="shape=flexArrow;endArrow=classic;startArrow=classic;html=1;rounded=0;" edge="1" parent="1">
          <mxGeometry width="100" height="100" relative="1" as="geometry">
            <mxPoint x="206" y="549.44" as="sourcePoint" />
            <mxPoint x="610" y="549" as="targetPoint" />
          </mxGeometry>
        </mxCell>
        <mxCell id="LzvdwM_UPnoj0yFsxbK3-4" value="Frontend" style="rounded=1;whiteSpace=wrap;html=1;" parent="1" vertex="1">
          <mxGeometry x="346" y="520" width="120" height="60" as="geometry" />
        </mxCell>
        <mxCell id="5tioHi316_J45j02cDT2-5" value="Return&lt;div&gt;rows&lt;/div&gt;" style="text;strokeColor=none;align=center;fillColor=none;html=1;verticalAlign=middle;whiteSpace=wrap;rounded=0;fontColor=light-dark(#000000,#0092FF);" vertex="1" parent="1">
          <mxGeometry x="200" y="810" width="60" height="30" as="geometry" />
        </mxCell>
        <mxCell id="5tioHi316_J45j02cDT2-7" value="Generate Session Token&lt;div&gt;Return&lt;/div&gt;&lt;div&gt;Token&lt;/div&gt;&lt;div&gt;Username&lt;/div&gt;" style="text;strokeColor=none;align=center;fillColor=none;html=1;verticalAlign=middle;whiteSpace=wrap;rounded=0;fontColor=light-dark(#000000,#0092FF);" vertex="1" parent="1">
          <mxGeometry x="200" y="1100" width="120" height="60" as="geometry" />
        </mxCell>
        <mxCell id="5tioHi316_J45j02cDT2-9" value="POST&lt;div&gt;Token&lt;/div&gt;&lt;div&gt;Username&lt;/div&gt;" style="text;strokeColor=none;align=center;fillColor=none;html=1;verticalAlign=middle;whiteSpace=wrap;rounded=0;fontColor=light-dark(#000000,#E6C700);" vertex="1" parent="1">
          <mxGeometry x="320" y="950" width="80" height="50" as="geometry" />
        </mxCell>
        <mxCell id="5tioHi316_J45j02cDT2-11" value="Save&lt;div&gt;Token&lt;/div&gt;&lt;div&gt;where Username&lt;/div&gt;" style="text;strokeColor=none;align=center;fillColor=none;html=1;verticalAlign=middle;whiteSpace=wrap;rounded=0;fontColor=light-dark(#000000,#E6C700);" vertex="1" parent="1">
          <mxGeometry x="320" y="810" width="90" height="50" as="geometry" />
        </mxCell>
      </root>
    </mxGraphModel>
  </diagram>
</mxfile>
